<?xml version="1.0" encoding="UTF-8" standalone="no"?>
<!-- Creator: CorelDRAW -->

<svg
   xml:space="preserve"
   width="1515.5752"
   height="422.85043"
   shape-rendering="geometricPrecision"
   text-rendering="geometricPrecision"
   image-rendering="optimizeQuality"
   fill-rule="evenodd"
   clip-rule="evenodd"
   viewBox="0 0 1548.4765 431.87624"
   version="1.1"
   id="svg54"
   xmlns="http://www.w3.org/2000/svg"
   xmlns:svg="http://www.w3.org/2000/svg"><defs
   id="defs58" />
 <g
   id="Ebene_x0020_1"
   transform="translate(0,-0.07639985)">
  <metadata
   id="CorelCorpID_0Corel-Layer" />
  <path
   fill="#1f1a17"
   d="m 510.85439,0.160493 h 26.5525 v 91.6715 c 0,20.933997 1.21999,45.356697 35.5582,45.356697 34.3382,0 35.7139,-24.4226 35.7139,-45.356697 v -91.6715 h 26.4017 V 100.71049 c 0,40.2873 -24.7219,60.2704 -62.1155,60.2704 -37.2367,0 -62.1107,-19.9832 -62.1107,-60.2704 V 0.160493 Z"
   id="path3" />
  <path
   fill="#1f1a17"
   d="m 663.16139,43.616493 h 22.8949 v 16.6502 l 0.30409,0.477858 c 7.32474,-12.5281 19.8396,-20.3005 34.1862,-20.3005 23.806,0 38.7608,13.3221 38.7608,38.8561 v 78.031999 h -24.1101 V 85.804251 c -0.46096,-17.7652 -7.1739,-25.5376 -21.3685,-25.5376 -16.1772,0 -26.5525,13.3269 -26.5525,29.9771 v 67.088399 h -24.1149 V 43.616151 Z"
   id="path5" />
  <path
   fill="#1f1a17"
   d="m 786.31939,43.616493 h 24.1149 V 157.33249 h -24.1149 z m 0,-43.4561 h 24.1149 v 23.7891 h -24.1149 z"
   id="path7" />
  <polygon
   fill="#1f1a17"
   points="926.547,161.299 951.577,161.299 912.353,275.015 885.187,275.015 845.355,161.299 871.605,161.299 899.382,248.526 899.837,248.526 "
   id="polygon9"
   transform="translate(-18.59161,-117.68251)" />
  <path
   fill="#1f1a17"
   d="m 995.40839,60.266493 h 0.76023 c 16.32918,0 26.70938,14.4335 27.47318,30.2933 h -28.23338 v 16.338897 h 52.34358 c 0.3077,-1.42754 0.3077,-2.85508 0.4598,-4.28383 v -7.931717 c -1.6798,-29.1783 -21.6713,-54.2393 -52.04312,-54.2393 h -0.76023 v 19.8227 z m 0,100.076997 v -19.8227 h 1.37203 c 13.88558,0 22.43518,-6.34489 26.70938,-18.873 h 22.8901 c -5.3421,24.9005 -25.6378,38.6956 -49.59948,38.6956 h -1.37203 z m -28.085,-69.784197 c 0.6118,-16.8107 11.7522,-29.9723 28.085,-30.2933 v -19.8227 c -32.2023,0.477858 -52.3472,28.0717 -52.3472,59.949497 0,34.734 18.9249,59.3171 52.3472,59.9507 v -19.8227 c -19.2326,-0.63473 -28.085,-16.1784 -28.085,-33.6226 h 28.085 V 90.559293 Z"
   id="path11" />
  <path
   fill="#1f1a17"
   d="m 1067.1284,43.616493 h 22.5872 v 22.0442 h 0.4561 c 2.7465,-12.2107 17.2451,-25.2167 32.0515,-25.2167 5.493,0 7.0207,0.477858 9.1566,0.633524 v 24.2658 c -3.5116,-0.476651 -7.0219,-1.11018 -10.3801,-1.11018 -16.6333,0 -29.7563,13.9556 -29.7563,38.854903 v 54.2441 h -24.1149 V 43.616137 Z"
   id="path13" />
  <path
   fill="#1f1a17"
   d="m 1160.8284,120.69349 c 1.2236,14.594 11.9078,19.8275 24.5747,19.8275 9.1565,0 25.026,-1.9054 24.4178,-14.9113 -0.6118,-13.3221 -18.1598,-14.7496 -35.8647,-19.0286 -17.5492,-3.96646 -34.95,-10.310097 -34.95,-33.465697 0,-24.8993 25.7935,-32.6717 45.633,-32.6717 22.4352,0 42.7309,9.673 45.7815,35.0502 h -25.3337 c -1.9826,-11.8946 -11.5953,-15.2275 -22.1263,-15.2275 -7.0219,0 -19.8408,1.74491 -19.8408,11.7389 0,12.3712 17.7049,14.1161 35.4061,18.2382 17.7049,4.28262 35.4049,10.627497 35.4049,33.149597 0,27.1172 -26.2484,36.9507 -48.9877,36.9507 -27.3175,0 -47.921,-12.685 -48.3771,-39.6501 h 24.2622 z"
   id="path15" />
  <path
   fill="#1f1a17"
   d="m 1253.9284,43.616493 h 24.1137 V 157.33249 h -24.1137 z m 0,-43.4561 h 24.1137 v 23.7891 h -24.1137 z"
   id="path17" />
  <path
   fill="#1f1a17"
   d="m 1294.2184,43.616493 h 18.1598 v -34.261 h 24.267 v 34.261 h 21.8234 v 18.7161 h -21.8234 v 60.582997 c 0,10.3101 0.7638,15.7005 11.5989,15.7005 3.3547,0 6.7129,0 10.2245,-0.95089 v 19.3496 c -5.3421,0.47786 -10.5322,1.42754 -15.7174,1.42754 -25.1829,0 -29.9168,-10.1497 -30.3729,-29.1819 V 62.332544 h -18.1598 v -18.7161 z"
   id="path19" />
  <path
   fill="#1f1a17"
   d="m 1444.2384,118.94849 c 0,14.7496 -14.1946,20.7772 -24.7267,21.5724 v 18.8718 c 9.9204,-1.74491 19.8408,-5.86703 26.7094,-12.8442 1.8318,10.3053 8.8524,13.7951 18.6208,13.7951 3.9665,0 11.5953,-1.58441 15.2577,-2.85146 v -17.4491 c -2.5908,0.47786 -4.4214,0.47786 -5.9491,0.47786 -4.4262,0 -5.8019,-2.37843 -5.8019,-8.56645 V 73.593041 c 0,-24.1101 -22.4304,-33.1496 -43.7988,-33.1496 -1.6785,0 -3.3582,0.155666 -5.038,0.155666 v 19.8275 l 3.5103,-0.160493 c 9.7684,0 22.7393,2.53892 22.7393,15.388 0,12.8442 -11.751,13.1616 -26.2496,15.067 v 15.538796 c 9.1614,-1.26705 18.4687,-1.7437 24.7267,-6.0227 v 18.7113 z M 1429.128,1.744493 v 23.7891 h 24.267 v -23.7891 z m -9.6163,138.776997 h -2.4388 c -8.3963,0 -22.2831,-3.33294 -22.2831,-14.4335 0,-13.3221 9.4643,-17.2886 19.8408,-19.0335 1.5265,-0.31616 3.2063,-0.47303 4.8812,-0.79401 V 90.721676 c -2.1347,0.316159 -4.4214,0.633524 -6.7129,1.11018 -20.2957,2.37843 -42.1227,6.81792 -42.1227,35.205804 0,22.3664 17.8569,33.3065 37.5444,33.3065 3.6623,0 7.4767,-0.31737 11.2912,-0.95089 v -18.8718 z m 0,-99.921797 v 19.8275 c -11.5953,0.950889 -19.6839,6.66105 -20.5998,17.9221 h -24.2658 c 1.6798,-27.2777 22.5872,-36.6382 44.8656,-37.7496 z m -2.5908,-15.0658 v -23.7891 h -24.1137 v 23.7891 z"
   id="path21" />
  <path
   fill="#1f1a17"
   d="m 1484.3784,43.616493 h 18.161 v -34.261 h 24.1149 v 34.261 h 21.8222 v 18.7161 h -21.8222 v 60.582997 c 0,10.3101 0.9147,15.7005 11.751,15.7005 3.3583,0 6.7129,0 10.0712,-0.95089 v 19.3496 c -5.1889,0.47786 -10.3753,1.42754 -15.5654,1.42754 -25.3337,0 -29.912,-10.1497 -30.3717,-29.1819 V 62.332544 h -18.161 v -18.7161 z"
   id="path23" />
  <path
   fill="#1f1a17"
   d="m 573.42599,289.90885 h 10.683 c 16.1784,0 25.4858,8.87899 25.4858,24.1065 0,15.8598 -9.30737,24.8993 -25.4858,24.8993 h -10.683 v 22.5221 h 6.86861 c 39.2206,0 55.8587,-19.1891 55.8587,-43.9328 0,-21.0945 -10.0773,-36.1615 -28.5412,-40.2837 v -0.47665 c 13.8868,-6.1844 21.6713,-17.6059 21.6713,-33.4621 0,-26.1712 -17.8569,-39.0166 -44.8704,-39.0166 h -10.9871 v 22.5221 h 7.1727 c 14.3466,0 22.1311,5.70654 22.1311,21.5676 0,14.1161 -9.46424,21.7281 -22.1311,21.7281 h -7.1727 v 19.8263 z m -36.17,0 h 36.17 v -19.8263 h -36.17 v -43.2956 h 36.17 v -22.5221 h -62.5716 v 157.172 h 62.5716 v -22.5221 h -36.17 v -49.0058 z"
   id="path25" />
  <path
   fill="#1f1a17"
   d="m 657.51599,247.72085 h 22.5872 v 22.0442 h 0.45976 c 2.74768,-12.2107 17.2451,-25.2167 32.0467,-25.2167 5.49416,0 7.02186,0.47786 9.15653,0.63352 v 24.2658 c -3.51033,-0.47665 -7.01703,-1.11018 -10.3753,-1.11018 -16.6381,0 -29.7599,13.9556 -29.7599,38.8549 v 54.2441 h -24.1149 v -113.716 z"
   id="path27" />
  <path
   fill="#1f1a17"
   d="m 776.25599,264.37085 h 0.60818 c 16.3292,0 26.7094,14.4335 27.6241,30.2933 h -28.2322 v 16.3389 h 52.3423 c 0.15688,-1.42754 0.30892,-2.85508 0.30892,-4.28383 v -7.93172 c -1.67974,-29.1783 -21.6713,-54.2393 -52.0431,-54.2393 h -0.60818 v 19.8227 z m 0,100.077 v -19.8227 h 1.21999 c 14.0377,0 22.434,-6.34489 26.7045,-18.873 h 22.8949 c -5.34211,24.9005 -25.6414,38.6956 -49.5995,38.6956 h -1.21999 z m -28.2371,-69.7842 c 0.6118,-16.8107 11.751,-29.9723 28.2371,-30.2933 v -19.8227 c -32.3556,0.47786 -52.3472,28.0717 -52.3472,59.9495 0,34.734 18.768,59.3171 52.3472,59.9507 v -19.8227 c -19.2326,-0.63473 -28.2371,-16.1784 -28.2371,-33.6226 h 28.2371 v -16.3389 z"
   id="path29" />
  <path
   fill="#1f1a17"
   d="m 847.82599,247.72085 h 22.8913 v 15.861 h 0.6118 c 7.32474,-11.261 16.3292,-19.0335 33.7264,-19.0335 13.4307,0 25.9455,6.02753 30.8279,19.0335 7.93655,-11.7389 18.3119,-19.0335 34.3382,-19.0335 23.04701,0 36.62491,10.6275 36.62491,38.3831 v 78.5051 h -24.11011 v -66.4548 c 0,-18.0778 -1.06794,-30.6107 -19.9916,-30.6107 -16.3304,0 -23.3511,11.261 -23.3511,30.455 v 66.6105 h -24.1149 v -72.9554 c 0,-15.7005 -4.7291,-24.1101 -19.2278,-24.1101 -12.5148,0 -23.9581,10.6275 -23.9581,29.4993 v 67.5662 h -24.267 v -113.716 z"
   id="path31" />
  <path
   fill="#1f1a17"
   d="m 1080.106,264.37085 h 0.7602 c 16.3292,0 26.7094,14.4335 27.4732,30.2933 h -28.2334 v 16.3389 h 52.4992 c 0.1521,-1.42754 0.1521,-2.85508 0.3041,-4.28383 v -7.93172 c -1.6797,-29.1783 -21.6713,-54.2393 -52.0431,-54.2393 h -0.7602 v 19.8227 z m 0,100.077 v -19.8227 h 1.372 c 13.8856,0 22.4352,-6.34489 26.7094,-18.873 h 22.8901 c -5.3409,24.9005 -25.6366,38.6956 -49.5995,38.6956 h -1.372 z m -28.085,-69.7842 c 0.6118,-16.8107 11.7522,-29.9723 28.085,-30.2933 v -19.8227 c -32.2023,0.47786 -52.346,28.0717 -52.346,59.9495 0,34.734 18.9237,59.3171 52.346,59.9507 v -19.8227 c -19.2326,-0.63473 -28.085,-16.1784 -28.085,-33.6226 h 28.085 v -16.3389 z"
   id="path33" />
  <path
   fill="#1f1a17"
   d="m 1151.836,247.72085 h 22.8901 v 16.6502 l 0.4597,0.47786 c 7.1739,-12.5281 19.6839,-20.3005 34.0305,-20.3005 23.8108,0 38.7644,13.3221 38.7644,38.8561 v 78.032 h -24.1149 v -71.5279 c -0.4549,-17.7652 -7.1678,-25.5376 -21.3624,-25.5376 -16.1784,0 -26.5573,13.3269 -26.5573,29.9771 v 67.0884 h -24.1101 v -113.716 z"
   id="path35" />
  <path
   fill="#c4263a"
   d="m 149.742,197.616 c -0.15205,43.2992 34.3382,77.238 75.5414,77.238 41.6678,0 75.5462,-33.9388 75.5462,-77.238 V 0 h -37.6977 v 197.616 c 0,21.5712 -16.9362,38.0657 -37.8485,38.0657 -20.1436,0 -37.8449,-17.1281 -37.8449,-38.0657 V 78.827 H 149.742 Z"
   id="path37" />
  <polygon
   fill="#c4263a"
   points="0,0 0,39.3328 36.3522,39.3328 36.3522,0 "
   id="polygon39" />
  <polygon
   fill="#c4263a"
   points="36.3522,39.3328 36.3522,78.6668 74.0439,78.6668 74.0439,39.3328 "
   id="polygon41" />
  <polygon
   fill="#c4263a"
   points="74.0439,0 74.0439,39.3328 111.894,39.3328 111.894,0 "
   id="polygon43" />
  <polygon
   fill="#c4263a"
   points="149.742,0 187.439,0 187.439,39.3328 149.742,39.3328 "
   id="polygon45" />
  <polygon
   fill="#c4263a"
   points="111.894,39.3328 149.742,39.3328 149.742,78.6668 111.894,78.6668 "
   id="polygon47" />
  <path
   fill="#c4263a"
   d="M 452.069,0.160493 V 197.61649 c 0,129.577 -101.64,234.413 -226.629,234.413 -116.099,0 -212.509,-90.6868 -225.44,-207.605 V 78.666493 H 36.3522 V 197.61549 c 0,108.009 85.0056,195.081 189.088,195.081 104.081,0 188.779,-87.0715 188.779,-195.081 V -5.07e-4 l 37.8497,0.160493 z"
   id="path49" />
  <path
   fill="#c4263a"
   d="m 338.678,0 v 197.616 c 0,64.8704 -50.9751,116.571 -113.395,116.571 -62.5704,0 -113.39,-51.7004 -113.39,-116.571 V 78.51 H 74.0433 v 119.106 c 0,86.438 67.9138,155.748 151.24,155.748 83.3307,0 151.092,-69.3099 151.092,-155.748 V 0.16 L 338.6776,-4.93e-4 Z"
   id="path51" />
 </g>
</svg>
