<?xml version="1.0" encoding="UTF-8" standalone="no"?>
<svg
   width="175.75pt"
   height="85.515633pt"
   viewBox="0 0 175.75 85.515633"
   version="1.2"
   id="svg15"
   xmlns="http://www.w3.org/2000/svg"
   xmlns:svg="http://www.w3.org/2000/svg">
  <defs
     id="defs19" />
  <path
     style="fill:#211e1e;fill-opacity:1;fill-rule:evenodd;stroke:none"
     d="m 0.542969,13.617188 c 1.273437,-1.085938 2,-2.359375 2.542969,-3.085938 L 5.628906,5.992188 C 5.808594,4.722657 6.71875,3.449219 7.445313,2.726563 7.261719,2.363281 6.898438,2.363281 6.898438,2.179688 c 1.632812,0 3.449218,-0.726563 4.359375,-0.726563 0.542969,0 1.089843,0.363282 1.089843,0.726563 0,0.726562 -0.726562,1.089843 -1.636718,1.089843 -0.363282,0 -0.542969,0 -0.90625,0 -0.546875,0.726563 -0.910156,1.453126 -0.910156,2.359376 0,2 2.179687,3.449218 4.542968,3.449218 0.179688,0 0.179688,0 0.359375,0 0.363281,-1.449218 1.273438,-2.539062 2.179688,-3.449218 -0.90625,-0.363282 -1.996094,-1.269532 -1.996094,-1.632813 0,0 1.996094,0.363281 1.996094,0.542969 0.183593,0 0.183593,0 0.183593,0 0.179688,-0.179688 0.363282,-0.363282 0.363282,-0.363282 -0.183594,0 -1.273438,-0.179687 -2,-0.359374 -0.542969,-0.367188 -0.90625,-0.726563 -0.90625,-0.910157 0.179687,0 0.90625,0.363281 1.816406,0.363281 0.542969,0 0.542969,0 0.90625,-0.179687 C 16.160156,2.363281 15.796875,2 15.070313,2 14.886719,2 14.523438,2.179688 13.980469,2.363281 13.617188,2 13.4375,1.453125 13.4375,0.910157 13.4375,0.726563 13.796875,0 14.886719,0 15.070313,0 15.25,0.363281 15.796875,0.363281 c 0.179688,0 0.179688,0 0.363281,0.183594 0,-0.183594 0,-0.183594 0,-0.183594 C 16.160156,0 16.339844,0 16.703125,0 c 0.90625,0 1.816407,0.363281 2.90625,0.363281 0.363281,0 0.542969,0 0.542969,-0.363281 0,0.546875 -0.179688,0.726563 -0.542969,0.910157 0.179688,0.179687 0.542969,0.90625 0.542969,1.816406 0,1.449218 -0.726562,2.722656 -0.726562,4.175781 0,0.90625 0.546874,1.8125 0.726562,2.175781 0,0 0.183594,0 0.546875,0 1.996094,0 4.355469,-1.449218 4.355469,-3.449218 0,-0.90625 -0.363282,-1.632813 -0.90625,-2.359376 -0.546875,0 -0.726563,0 -0.910156,0 -1.089844,0 -1.453126,-0.363281 -1.816407,-1.089843 0,-0.363281 0.546875,-0.726563 1.089844,-0.726563 1.089844,0 2.90625,0.726563 4.539063,0.726563 -0.179688,0.183593 -0.363282,0.183593 -0.90625,0.546875 1.089843,0.722656 1.816406,1.996094 1.996093,3.265625 l 2.722657,4.539062 c 0.546874,0.726563 1.273437,2 2.726562,3.085938 0,0 0.179688,0 0.179688,0.183593 -0.726563,0 -1.632813,0 -2.179688,-0.183593 -0.726562,-0.542969 -1.269531,-0.90625 -2.175781,-2.175781 L 27.960938,9.261719 c 0,0.179688 -0.183594,0.542969 -0.183594,0.90625 l 2,3.449219 L 30.5,14.34375 c 0.363282,0.726563 1.273438,2.179688 2.90625,3.269531 -1.816406,0 -3.085937,0 -4.71875,-2.179687 l -0.910156,-1.816406 -1.453125,-1.996094 c 0,0.179687 -0.179687,0.363281 -0.359375,0.363281 l 0.90625,1.632813 2.359375,3.816406 c 0.363281,0.90625 1.453125,2.175781 2.90625,3.265625 -1.636719,0 -2.90625,0.179688 -4.359375,-2.179688 L 24.691406,13.617188 24.511719,13.074219 C 24.328125,13.4375 24.328125,13.4375 24.148438,13.617188 h -0.363282 l 4.175782,6.355469 c 0.363281,0.726562 1.269531,2.179687 2.722656,3.269531 -1.632812,0 -2.90625,0 -4.539062,-2.363281 L 22.148438,14.34375 c -0.179688,0 -0.363282,0.363281 -0.726563,0.363281 l 4.542969,7.445313 c 0.722656,0.726563 1.449219,2.179687 3.085938,3.265625 -1.816407,0 -3.085938,0 -4.539063,-2.359375 l -4.902344,-7.988281 c -0.183593,0.363281 -0.183593,0.910156 -0.183593,1.269531 0,2.542969 1.453124,4.722656 3.269531,6.539063 0,0 -0.183594,0 -0.363281,0 -0.363282,0 -0.546876,0 -0.910157,0 0.546875,1.089843 1.273438,2.359374 2,2.902343 0.726563,-0.179687 1.453125,-0.179687 2.175781,-0.179687 0.546876,0 0.546876,0.363281 0.546876,0.726562 0,0.542969 -0.179688,0.90625 -0.546876,1.269532 0,-0.363282 -0.179687,-0.726563 -1.449218,-0.726563 0.179687,0.363281 1.269531,1.273437 1.269531,2 0,0.363281 -0.542969,1.269531 -1.089844,1.269531 0,-0.183594 0,-0.542968 0,-0.542968 0,-0.546876 -0.542969,-1.273438 -0.90625,-1.636719 0,0.183593 0,0.183593 0,0.183593 0,1.453126 -0.183593,1.996094 -1.089843,1.996094 -0.363282,0 -0.546876,-0.183594 -0.910157,-0.183594 0.726563,-0.542968 0.726563,-0.90625 0.726563,-1.8125 0,-0.183593 0,-0.363281 0,-0.546874 0,-0.363282 0,-0.542969 0,-0.542969 -0.179688,-0.183594 -0.363282,-0.183594 -0.726563,-0.183594 0,0 -1.085937,0 -1.449219,0.726563 -0.183593,-0.542969 -0.910156,-0.726563 -0.910156,-1.269532 0,-0.363281 0.363282,-0.726562 0.910156,-0.726562 0.179688,0 1.089844,0.179687 1.449219,0.179687 0,-0.363281 -0.722656,-1.449219 -1.449219,-2.359375 0,0.546875 -0.183593,0.726563 -0.546874,1.089844 0,-0.542969 -0.363282,-2.179688 -1.089844,-3.269531 0,0.730469 -0.179688,1.453125 -0.179688,2.90625 0,3.085937 0.726563,5.808593 2.542969,6.171875 -0.363281,0.363281 -0.726563,0.726562 -1.273437,0.726562 -0.726563,0 -0.90625,-0.726562 -1.269532,-1.449218 -0.363281,0.542968 -0.726562,1.8125 -1.089844,1.8125 -0.726562,0 -1.089843,-1.269532 -1.269531,-1.8125 -0.363281,0.722656 -0.726562,1.449218 -1.273437,1.449218 -0.542969,0 -0.90625,-0.363281 -1.085938,-0.726562 1.632813,-0.363282 2.359375,-3.085938 2.359375,-6.171875 0,-1.453125 0,-2.175781 -0.363281,-2.90625 -0.546875,1.089843 -0.910156,2.726562 -0.910156,3.269531 -0.363282,-0.363281 -0.542969,-0.542969 -0.726563,-1.089844 -0.722656,0.910156 -1.269531,1.996094 -1.449219,2.359375 0.542969,0 1.269532,-0.179687 1.632813,-0.179687 0.542969,0 0.726563,0.363281 0.726563,0.726562 0,0.542969 -0.546876,0.726563 -0.910157,1.269532 -0.179687,-0.726563 -1.449219,-0.726563 -1.449219,-0.726563 -0.183593,0 -0.183593,0 -0.726562,0.183594 0,0 0,0.179687 0,0.542969 0,0.183593 0,0.363281 0,0.546874 0,0.90625 0.179688,1.269532 0.726562,1.8125 0,0 -0.546874,0.183594 -0.910156,0.183594 -0.90625,0 -0.90625,-0.542968 -0.90625,-1.996094 0,0 0,0 0,-0.183593 -0.363281,0.363281 -0.910156,1.089843 -0.910156,1.636719 0,0 0,0.359374 0,0.542968 -0.542969,0 -1.269531,-0.90625 -1.269531,-1.269531 0,-0.726563 1.089843,-1.636719 1.453125,-2 H 9.621094 c -1.089844,0 -1.269531,0.363281 -1.453125,0.726563 -0.179687,-0.363282 -0.722656,-0.726563 -0.722656,-1.269532 0,-0.363281 0.363281,-0.726562 0.90625,-0.726562 0.726562,0 1.453125,0 2.179687,0.179687 0.542969,-0.542969 1.632813,-1.8125 1.996094,-2.902343 -0.179688,0 -0.363281,0 -0.90625,0 -0.183594,0 -0.363281,0 -0.546875,0 1.816406,-1.816407 3.632813,-3.996094 3.632813,-6.539063 0,-0.359375 0,-0.90625 -0.183594,-1.269531 h -0.363282 l -4.902343,7.988281 c -1.449219,2.359375 -2.539063,2.359375 -4.355469,2.359375 1.632812,-1.085938 2.359375,-2.539062 2.90625,-3.265625 l 4.71875,-7.445313 c -0.179688,0 -0.726562,-0.363281 -0.90625,-0.363281 L 7.445313,20.878907 C 5.992188,23.242188 4.902344,23.242188 3.269532,23.242188 4.71875,22.152344 5.628906,20.699219 5.992188,19.972657 l 4.175781,-6.355469 H 9.621094 c 0,-0.179688 -0.179688,-0.179688 -0.179688,-0.542969 l -0.183593,0.542969 -3.265625,4.902343 c -1.453125,2.359376 -2.542969,2.179688 -4.175782,2.179688 1.453126,-1.089844 2.359376,-2.359375 2.722657,-3.265625 l 2.542969,-3.816406 0.90625,-1.632813 c -0.179688,0 -0.542969,-0.183594 -0.726563,-0.363281 L 6.171875,13.617188 4.902344,15.433594 C 3.449219,17.613281 2.359375,17.613281 0.726563,17.613281 2.179688,16.523438 3.085938,15.070313 3.449219,14.34375 L 4.175782,13.617188 6.171875,10.167969 C 5.992188,9.804688 5.992188,9.441407 5.808594,9.261719 L 4.539063,11.441407 C 3.632813,12.710938 3.085938,13.074219 2.179688,13.617188 1.453125,13.800781 0.90625,13.800781 0,13.800781 0.179688,13.617188 0.179688,13.617188 0.542969,13.617188 Z m 13.253906,9.625 c -0.179687,-0.363281 -0.179687,-0.546875 -0.722656,-0.546875 -0.183594,0 -0.183594,0 -0.363281,0 -0.183594,0.910156 -1.636719,3.085937 -2.179688,3.269531 -0.726562,0 -1.453125,-0.183594 -2.179687,-0.183594 -0.183594,0 -0.363281,0 -0.363281,0.546875 0,0.179688 0,0.542969 0.179687,0.726563 0.183594,-0.363281 0.910156,-0.363281 1.453125,-0.363281 0.546875,0 0.726562,0 0.910156,0 -0.910156,0.90625 -1.636718,1.632812 -1.636718,2.179687 0,0.363281 0.183593,0.542969 0.363281,0.726563 0,-0.726563 0.910156,-1.636719 1.453125,-2.363282 0,0.363282 0,0.546875 0,0.910156 0,1.453126 0.363281,1.8125 0.726562,1.8125 0.183594,0 0.363282,0 0.363282,0 -0.179688,-0.542968 -0.363282,-0.90625 -0.363282,-1.8125 0,-0.183593 0,-0.363281 0,-0.546874 0,-0.363282 0,-0.726563 0,-0.90625 0.183594,0 0.726563,0 0.910156,0 0.726563,0 1.269532,0 1.449219,0.363281 0.183594,-0.183594 0.726563,-0.546875 0.726563,-0.726563 0,-0.363281 -0.363282,-0.363281 -0.542969,-0.363281 -0.363281,0 -0.90625,0 -2.179687,0 0.363281,-0.546875 1.089843,-1.632813 1.996093,-2.722656 z m 8.351563,2.722656 c -1.449219,0 -1.8125,0 -2.175782,0 -0.183593,0 -0.363281,0 -0.363281,0.363281 0,0.179688 0.179688,0.542969 0.363281,0.726563 0.363282,-0.363281 0.90625,-0.363281 1.449219,-0.363281 0.546875,0 0.910157,0 1.089844,0 0,0.179687 0,0.542968 0,0.90625 0,0.183593 0,0.363281 0,0.546874 0,0.90625 -0.179687,1.269532 -0.363281,1.8125 h 0.183594 c 0.726562,0 0.726562,-0.359374 0.726562,-1.8125 0,-0.363281 0,-0.546874 0,-0.910156 0.726562,0.726563 1.632812,1.636719 1.632812,2.363282 0.183594,-0.183594 0.363282,-0.363282 0.363282,-0.726563 0,-0.546875 -0.726563,-1.273437 -1.632813,-2.179687 0.179688,0 0.363281,0 0.726563,0 0.726562,0 1.269531,0 1.632812,0.363281 0,-0.183594 0.183594,-0.546875 0.183594,-0.726563 0,-0.546875 -0.183594,-0.546875 -0.367188,-0.546875 -0.90625,0 -1.8125,0.183594 -2.359374,0.183594 -0.179688,-0.183594 -1.816407,-2.359375 -2.175782,-3.269531 0,0 -0.183594,0 -0.363281,0 -0.363281,0 -0.546875,0.183594 -0.546875,0.546875 0.910156,1.089843 1.632812,2.175781 1.996094,2.722656 z M 17.609375,2 c 0.726563,0.179688 1.273438,-0.910156 0.546875,-1.089843 0.179688,0.542968 -0.546875,0.726562 -0.546875,0.726562 0,0 0,-0.546875 0.183594,-0.910156 C 17.429688,0.546875 17.25,0.910157 17.25,1.089844 17.429688,1.453125 17.429688,1.636719 17.609375,2 Z m -0.90625,1.449219 C 17.066406,3.269531 17.25,2.90625 17.25,2.363281 c 0,-1.273437 -1.089844,-1.816406 -2.363281,-1.816406 -0.90625,0 -1.089844,0.179688 -1.089844,0.363282 0,0.179687 0.183594,0.90625 0.183594,0.90625 0.179687,0 0.90625,-0.179688 1.089844,-0.179688 0.90625,0 1.632812,1.089844 1.632812,1.8125 z M 7.988282,5.8125 c 0,-1.273437 0.90625,-1.996093 1.269531,-2.722656 -0.179688,0 -0.179688,0 -0.179688,0 -0.546875,0.359375 -1.816406,1.632813 -1.816406,3.265625 0,2.90625 2.90625,5.445312 6.355469,5.445312 0,-0.179687 0,-0.542968 0,-0.722656 0,-0.363281 0,-0.546875 0,-0.726562 -3.085938,0 -5.628906,-2.179688 -5.628906,-4.539063 z M 26.6875,6.355469 c 0,-1.632812 -1.269531,-2.90625 -1.8125,-3.265625 h -0.183594 c 0.363282,0.726563 1.089844,1.449219 1.089844,2.722656 0,2.359375 -2.359375,4.355469 -5.445312,4.539063 0,0.179687 0,0.363281 0,0.726562 0,0.179688 0,0.542969 0,0.722656 3.265625,0 6.351562,-2.539062 6.351562,-5.445312"
     id="path4" />
  <path
     style="fill:#211e1e;fill-opacity:1;fill-rule:evenodd;stroke:none"
     d="m 42.304688,1.089844 h 4.902344 V 29.234375 H 42.304688 V 1.089844"
     id="path6" />
  <path
     style="fill:#eb1923;fill-opacity:1;fill-rule:evenodd;stroke:none"
     d="m 42.304688,29.234375 h 4.902344 V 57.374999 H 42.304688 V 29.234375"
     id="path8" />
  <path
     style="fill:#fff000;fill-opacity:1;fill-rule:evenodd;stroke:none"
     d="m 42.304688,57.374999 h 4.902344 v 28.14063 h -4.902344 v -28.14063"
     id="path10" />
  <path
     style="fill:#211e1e;fill-opacity:1;fill-rule:evenodd;stroke:none"
     d="M 57.007813,12.53125 V 1.273438 h 3.449219 c 0.726562,0 1.273437,0.179687 1.636718,0.363281 0.363282,0.179688 0.726563,0.542969 0.90625,1.089844 0.363282,0.363281 0.546875,0.90625 0.546875,1.449218 0,0.546876 -0.183593,0.910157 -0.363281,1.453126 -0.363281,0.363281 -0.546875,0.726562 -1.089844,0.910156 0.542969,0.179687 1.089844,0.542968 1.269532,1.089844 0.363281,0.363281 0.546874,0.90625 0.546874,1.632812 0,0.726562 -0.183593,1.269531 -0.363281,1.816406 -0.363281,0.542969 -0.726562,0.90625 -1.089843,1.085938 -0.546876,0.183594 -1.089844,0.367187 -2,0.367187 z M 58.28125,5.992188 h 1.8125 c 0.546875,0 0.910156,0 1.273438,0 0.179687,-0.179688 0.542968,-0.363281 0.726562,-0.542969 0,-0.363281 0.179688,-0.726562 0.179688,-1.089844 0,-0.363281 0,-0.726562 -0.179688,-0.910156 -0.183594,-0.359375 -0.363281,-0.542969 -0.726562,-0.722656 -0.183594,0 -0.726563,0 -1.273438,0 h -1.8125 z m 0,5.265625 h 2.175782 c 0.546874,0 0.910156,-0.179688 1.089843,-0.179688 0.363281,-0.183594 0.726563,-0.363281 0.910157,-0.726562 0.179687,-0.183594 0.179687,-0.546875 0.179687,-1.089844 0,-0.363281 0,-0.726562 -0.179687,-1.089844 C 62.273438,7.992188 61.910156,7.628907 61.730469,7.628907 61.367188,7.445313 61.003906,7.445313 60.277344,7.445313 H 58.28125 Z m 12.164063,1.273437 v -1.273437 c -0.183594,0.542968 -0.546875,0.90625 -0.910157,1.089844 -0.363281,0.183593 -0.722656,0.363281 -1.085937,0.363281 -0.546875,0 -1.089844,-0.179688 -1.453125,-0.363281 -0.363281,-0.363282 -0.546875,-0.726563 -0.726562,-1.089844 -0.183594,-0.542969 -0.183594,-1.089844 -0.183594,-1.816406 V 4.359375 h 1.089844 v 4.539063 c 0,0.90625 0,1.453125 0.183593,1.632812 0,0.363281 0.179688,0.546875 0.542969,0.726563 0.183594,0.183594 0.363281,0.183594 0.726562,0.183594 0.542969,0 0.90625,-0.183594 1.269532,-0.546876 0.363281,-0.363281 0.546875,-1.089843 0.546875,-2.179687 V 4.359375 h 1.089843 v 8.171875 z m 3.449219,0 V 4.359375 h 1.089843 v 1.269532 c 0.179688,-0.542969 0.542969,-0.90625 0.90625,-1.089844 0.363281,-0.179688 0.726563,-0.363282 1.269531,-0.363282 0.367188,0 0.546876,0.183594 0.910157,0.363282 0.363281,0 0.542969,0.183594 0.726562,0.546875 0.179688,0.179687 0.363281,0.363281 0.363281,0.726562 0.179688,0.363281 0.179688,0.90625 0.179688,1.816407 V 12.53125 H 78.25 V 7.628907 c 0,-0.546876 0,-1.089844 -0.179687,-1.273438 0,-0.363281 -0.183594,-0.542969 -0.542969,-0.726562 -0.183594,-0.179688 -0.367188,-0.179688 -0.726562,-0.179688 -0.546876,0 -0.910157,0.179688 -1.273438,0.542969 -0.179688,0.363281 -0.363281,1.089843 -0.363281,2.179687 v 4.359375 z m 12.164062,0 v -1.089843 c -0.179688,0.359374 -0.363281,0.722656 -0.726562,0.90625 -0.363282,0.183593 -0.726563,0.363281 -1.089844,0.363281 -0.726563,0 -1.453125,-0.363281 -1.996094,-1.089844 -0.542969,-0.726563 -0.90625,-1.816406 -0.90625,-3.085937 0,-0.90625 0.179688,-1.816407 0.542969,-2.359376 0.179687,-0.726562 0.542969,-1.089843 0.90625,-1.453124 0.546875,-0.363282 0.910156,-0.546876 1.453125,-0.546876 0.363281,0 0.726562,0.183594 1.089844,0.363282 0.183593,0.183594 0.546874,0.546875 0.726562,0.726562 V 1.273438 h 1.089844 V 12.53125 Z M 82.609375,8.535157 c 0,0.90625 0.179688,1.816406 0.542969,2.359374 0.363281,0.363282 0.726562,0.726563 1.273438,0.726563 0.363281,0 0.90625,-0.363281 1.269531,-0.726563 0.363281,-0.542968 0.542969,-1.269531 0.542969,-2.179687 0,-1.269531 -0.179688,-1.996094 -0.542969,-2.539063 -0.363281,-0.546874 -0.90625,-0.726562 -1.453125,-0.726562 -0.363282,0 -0.726563,0.179688 -1.089844,0.726562 -0.363281,0.363282 -0.542969,1.269532 -0.542969,2.359376 z m 11.617189,1.453124 1.08984,0.179688 c -0.17968,0.726562 -0.54297,1.453125 -0.90625,1.816406 -0.54687,0.546875 -1.26953,0.726563 -1.99609,0.726563 -0.91016,0 -1.63672,-0.363281 -2.179689,-1.089844 -0.726562,-0.726563 -0.90625,-1.816406 -0.90625,-3.085937 0,-1.453126 0.179688,-2.542969 0.90625,-3.269532 0.542969,-0.726562 1.269529,-1.089844 2.179689,-1.089844 0.90625,0 1.63281,0.363282 2.17578,1.089844 0.54688,0.726563 0.91016,1.816406 0.91016,3.269532 v 0.363281 h -5.085941 c 0,0.90625 0.363281,1.453125 0.726562,1.996093 0.363279,0.363282 0.726559,0.726563 1.273439,0.726563 0.90625,0 1.44922,-0.542969 1.8125,-1.632813 z M 90.597656,7.628907 h 3.628908 c 0,-0.726563 -0.17969,-1.089844 -0.36328,-1.453126 -0.35938,-0.546874 -0.90625,-0.726562 -1.44922,-0.726562 -0.54688,0 -0.91016,0.179688 -1.273439,0.542969 -0.363281,0.363281 -0.542969,0.910156 -0.542969,1.636719 z m 6.535158,2.539062 1.08984,-0.363281 c 0,0.726562 0.17969,1.089843 0.54297,1.273437 0.36719,0.363282 0.72656,0.542969 1.08985,0.542969 0.546866,0 0.910146,-0.179687 1.273426,-0.363281 0.17969,-0.363282 0.36328,-0.542969 0.36328,-0.90625 0,-0.363282 -0.18359,-0.546875 -0.36328,-0.726563 -0.18359,-0.183593 -0.54687,-0.363281 -1.08984,-0.546875 -0.906246,-0.179687 -1.453126,-0.542968 -1.816406,-0.722656 -0.36328,-0.183594 -0.54297,-0.363281 -0.72656,-0.726562 -0.17969,-0.363282 -0.17969,-0.726563 -0.17969,-1.089844 0,-0.726563 0.17969,-1.273438 0.72657,-1.636719 0.35937,-0.363281 0.90625,-0.726563 1.8125,-0.726563 0.363276,0 0.910146,0.183594 1.273426,0.363282 0.36328,0.183594 0.54297,0.363281 0.90625,0.726562 0.1836,0.183594 0.1836,0.726563 0.36328,1.273438 L 101.30859,6.71875 C 101.1289,5.8125 100.76562,5.449219 99.855474,5.449219 c -0.54297,0 -0.90625,0 -1.08985,0.179688 -0.17969,0.183593 -0.36328,0.546874 -0.36328,0.726562 0,0.363281 0,0.546875 0.36328,0.726562 0,0.183594 0.54688,0.363282 1.08985,0.546876 1.089836,0.363281 1.636706,0.542968 1.816396,0.726562 0.36328,0.179688 0.54688,0.359375 0.72656,0.722656 0.1836,0.183594 0.1836,0.546875 0.1836,1.089844 0,0.726562 -0.1836,1.273438 -0.72656,1.816406 -0.54688,0.546875 -1.08985,0.726563 -1.999996,0.726563 -1.63282,0 -2.53907,-0.910157 -2.72266,-2.542969 z m 7.624996,2.363281 V 4.359375 h 0.91016 v 1.269532 c 0.17968,-0.542969 0.54296,-0.90625 0.90625,-1.089844 0.36328,-0.179688 0.72656,-0.363282 1.08984,-0.363282 0.54687,0 0.90625,0.183594 1.26953,0.363282 0.18359,0.363281 0.54688,0.726562 0.72656,1.089844 0.1836,-0.363282 0.54688,-0.726563 0.91016,-1.089844 0.17969,-0.179688 0.72656,-0.363282 1.08594,-0.363282 0.54687,0 1.09375,0.363282 1.45312,0.726563 0.36328,0.363281 0.54688,1.089844 0.54688,2 V 12.53125 H 112.5664 V 7.445313 c 0,-0.542969 0,-1.089844 -0.18359,-1.269532 0,-0.183593 -0.17969,-0.363281 -0.36328,-0.546874 -0.17969,-0.179688 -0.36328,-0.179688 -0.72266,-0.179688 -0.36328,0 -0.72656,0.179688 -1.08984,0.542969 -0.36328,0.363281 -0.54688,0.910156 -0.54688,1.816406 v 4.722656 h -1.08984 V 7.265625 c 0,-0.726562 0,-1.089844 -0.17969,-1.453125 -0.36328,-0.183593 -0.54297,-0.363281 -0.91015,-0.363281 -0.54297,0 -0.90625,0.179688 -1.26954,0.542969 -0.17968,0.546875 -0.36328,1.273437 -0.36328,2.363281 v 4.175781 z m 11.25781,-9.625 V 1.273438 h 1.08985 V 2.90625 Z m 0,9.625 V 4.359375 h 1.08985 v 8.171875 z m 3.63281,0 V 4.359375 h 1.08594 v 1.269532 c 0.18359,-0.542969 0.54688,-0.90625 0.72656,-1.089844 0.36328,-0.179688 0.91016,-0.363282 1.27344,-0.363282 0.36328,0 0.72656,0.183594 1.08594,0.363282 0.18359,0 0.54687,0.183594 0.73047,0.546875 0.17968,0.179687 0.17968,0.363281 0.35937,0.726562 0,0.363281 0.1836,0.90625 0.1836,1.816407 v 4.902343 h -1.27344 V 7.628907 c 0,-0.546876 0,-1.089844 0,-1.273438 -0.17969,-0.363281 -0.35938,-0.542969 -0.54297,-0.726562 -0.17969,-0.179688 -0.54297,-0.179688 -0.72656,-0.179688 -0.54297,0 -0.90625,0.179688 -1.26953,0.542969 -0.36329,0.363281 -0.54688,1.089843 -0.54688,2.179687 v 4.359375 z m 7.80469,-9.625 V 1.273438 h 1.08984 V 2.90625 Z m 0,9.625 V 4.359375 h 1.08984 v 8.171875 z m 3.26953,-2.363281 1.08985,-0.363281 c 0,0.726562 0.17968,1.089843 0.54296,1.273437 0.17969,0.363282 0.54297,0.542969 1.08985,0.542969 0.54297,0 0.90625,-0.179687 1.08984,-0.363281 0.36328,-0.363282 0.54297,-0.542969 0.54297,-0.90625 0,-0.363282 -0.17969,-0.546875 -0.36328,-0.726563 -0.17969,-0.183593 -0.54297,-0.363281 -1.26953,-0.546875 -0.72656,-0.179687 -1.45313,-0.542968 -1.63281,-0.722656 -0.36329,-0.183594 -0.54688,-0.363281 -0.72657,-0.726562 -0.18359,-0.363282 -0.18359,-0.726563 -0.18359,-1.089844 0,-0.726563 0.18359,-1.273438 0.54687,-1.636719 0.54297,-0.363281 1.08594,-0.726563 1.81641,-0.726563 0.54297,0 0.90625,0.183594 1.44922,0.363282 0.36328,0.183594 0.54687,0.363281 0.72656,0.726562 0.1836,0.183594 0.36328,0.726563 0.54688,1.273438 l -1.27344,0.179687 c 0,-0.90625 -0.54297,-1.269531 -1.26953,-1.269531 -0.54688,0 -0.91016,0 -1.08985,0.179688 -0.36328,0.183593 -0.36328,0.546874 -0.36328,0.726562 0,0.363281 0,0.546875 0.1836,0.726562 0.17968,0.183594 0.54297,0.363282 1.26953,0.546876 0.90625,0.363281 1.63281,0.542968 1.8164,0.726562 0.36329,0.179688 0.54297,0.359375 0.72657,0.722656 0,0.183594 0.17968,0.546875 0.17968,1.089844 0,0.726562 -0.17968,1.273438 -0.72656,1.816406 -0.54297,0.546875 -1.26953,0.726563 -1.99609,0.726563 -1.63281,0 -2.54297,-0.910157 -2.72266,-2.542969 z m 9.98438,1.089844 0.18359,1.273437 c -0.36328,0 -0.54687,0 -0.91016,0 -0.36328,0 -0.72656,0 -0.90625,-0.183593 -0.18359,-0.183594 -0.36328,-0.363282 -0.54687,-0.546876 0,-0.359374 0,-0.90625 0,-1.632812 v -4.71875 h -0.90625 V 4.359375 h 0.90625 V 2.363281 l 1.08984,-0.726562 v 2.722656 h 1.08985 v 1.089844 h -1.08985 v 4.71875 c 0,0.546875 0,0.726562 0,0.910156 0.1836,0.179688 0.36328,0.179688 0.54688,0.179688 0.17969,0 0.36328,0 0.54297,0 z m 6.35547,-1.269532 1.08984,0.179688 c -0.18359,0.726562 -0.54688,1.453125 -1.08984,1.816406 -0.36329,0.546875 -1.08985,0.726563 -1.81641,0.726563 -0.90625,0 -1.63281,-0.363281 -2.17969,-1.089844 -0.72656,-0.726563 -0.90625,-1.816406 -0.90625,-3.085937 0,-1.453126 0.17969,-2.542969 0.90625,-3.269532 0.54688,-0.726562 1.27344,-1.089844 2.17969,-1.089844 0.90625,0 1.63281,0.363282 2.17969,1.089844 0.54297,0.726563 0.72656,1.816406 0.72656,3.269532 V 8.898438 H 143.25 c 0,0.90625 0.36328,1.453125 0.72656,1.996093 0.36328,0.363282 0.72265,0.726563 1.26953,0.726563 0.90625,0 1.45312,-0.542969 1.81641,-1.632813 z m -3.63282,-2.359374 h 3.63282 c 0,-0.726563 -0.1836,-1.089844 -0.54688,-1.453126 -0.36328,-0.546874 -0.72266,-0.726562 -1.26953,-0.726562 -0.54688,0 -0.90625,0.179688 -1.26953,0.542969 -0.36328,0.363281 -0.54688,0.910156 -0.54688,1.636719 z m 6.90235,4.902343 V 4.359375 h 1.08593 v 1.269532 c 0.1836,-0.542969 0.36329,-0.90625 0.72657,-1.089844 0.18359,-0.179688 0.36328,-0.363282 0.72656,-0.363282 0.36328,0 0.72656,0.183594 1.08984,0.546876 l -0.36328,1.269531 C 153.23437,5.8125 153.05468,5.628907 152.6914,5.628907 c -0.18359,0 -0.36328,0.183593 -0.54687,0.363281 -0.17969,0 -0.36328,0.363281 -0.54297,0.546875 0,0.542968 -0.1836,1.089844 -0.1836,1.816406 v 4.175781 z m 5.08203,-9.625 V 1.273438 h 1.08984 V 2.90625 Z m 0,9.625 V 4.359375 h 1.08984 v 8.171875 z m 7.80859,0 v -1.273437 c -0.18359,0.542968 -0.54687,0.90625 -0.91015,1.089844 -0.36329,0.183593 -0.72657,0.363281 -1.08985,0.363281 -0.54297,0 -1.08984,-0.179688 -1.45312,-0.363281 -0.36328,-0.363282 -0.54297,-0.726563 -0.72657,-1.089844 0,-0.542969 -0.17968,-1.089844 -0.17968,-1.816406 V 4.359375 h 1.08984 v 4.539063 c 0,0.90625 0.17969,1.453125 0.17969,1.632812 0.18359,0.363281 0.18359,0.546875 0.54687,0.726563 0.17969,0.183594 0.36328,0.183594 0.72657,0.183594 0.54296,0 0.90625,-0.183594 1.26953,-0.546876 0.36328,-0.363281 0.54687,-1.089843 0.54687,-2.179687 V 4.359375 h 1.08594 v 8.171875 z m 3.62891,0 V 4.359375 h 0.90625 v 1.269532 c 0.18359,-0.542969 0.54687,-0.90625 0.91015,-1.089844 0.36329,-0.179688 0.72657,-0.363282 1.08985,-0.363282 0.54297,0 0.90625,0.183594 1.26953,0.363282 0.36328,0.363281 0.54297,0.726562 0.72656,1.089844 0.17969,-0.363282 0.54297,-0.726563 0.90625,-1.089844 0.1836,-0.179688 0.72656,-0.363282 1.08985,-0.363282 0.54687,0 1.08984,0.363282 1.45312,0.726563 0.36328,0.363281 0.54688,1.089844 0.54688,2 v 5.628906 h -1.08985 V 7.445313 c 0,-0.542969 0,-1.089844 -0.18359,-1.269532 0,-0.183593 -0.17969,-0.363281 -0.36328,-0.546874 -0.17969,-0.179688 -0.36328,-0.179688 -0.54297,-0.179688 -0.54688,0 -0.91016,0.179688 -1.27344,0.542969 -0.36328,0.363281 -0.36328,0.910156 -0.36328,1.816406 v 4.722656 h -1.26953 V 7.265625 c 0,-0.726562 0,-1.089844 -0.17969,-1.453125 -0.18359,-0.183593 -0.54687,-0.363281 -0.91016,-0.363281 -0.54296,0 -0.90625,0.179688 -1.26953,0.542969 -0.17968,0.546875 -0.36328,1.273437 -0.36328,2.363281 V 12.53125 Z M 57.191406,30.140625 v -6.898437 h -1.089843 v -1.089844 h 1.089843 v -0.910156 c 0,-0.722657 0,-1.085938 0.179688,-1.449219 0.183594,-0.363281 0.363281,-0.546875 0.546875,-0.726562 0.363281,-0.183594 0.726563,-0.183594 1.089844,-0.183594 0.363281,0 0.722656,0 1.085937,0 l -0.179687,1.273437 c -0.183594,0 -0.542969,0 -0.726563,0 -0.363281,0 -0.542968,0 -0.726562,0.179688 -0.179688,0.183593 -0.179688,0.542969 -0.179688,1.089843 v 0.726563 h 1.269532 v 1.089844 H 58.28125 v 6.898437 z m 8.351563,0 v -1.089844 c -0.363281,0.363282 -0.542969,0.726563 -0.90625,0.90625 -0.363281,0.363282 -0.726563,0.363282 -1.273437,0.363282 -0.542969,0 -0.90625,-0.179688 -1.269532,-0.363282 -0.363281,-0.359374 -0.726562,-0.722656 -0.726562,-1.085937 -0.183594,-0.363281 -0.183594,-1.089844 -0.183594,-1.816406 v -4.902344 h 1.089844 v 4.355469 c 0,0.910156 0,1.453125 0.183594,1.816406 0,0.183594 0.179687,0.363281 0.363281,0.546875 0.179687,0.179687 0.542969,0.363281 0.726562,0.363281 0.542969,0 1.089844,-0.363281 1.453125,-0.726562 0.179688,-0.363282 0.359375,-1.089844 0.359375,-2 v -4.355469 h 1.089844 v 7.988281 z M 62.09375,20.519531 v -1.636718 h 1.269532 v 1.636718 z m 2.359375,0 v -1.636718 h 1.089844 v 1.636718 z m 4.539063,9.621094 v -7.988281 h 1.089844 v 1.089844 c 0.179687,-0.546875 0.363281,-0.910157 0.726562,-1.089844 0.179688,-0.179687 0.363281,-0.179687 0.726562,-0.179687 0.363282,0 0.726563,0 1.089844,0.359374 l -0.363281,1.273438 c -0.363281,-0.183594 -0.546875,-0.363281 -0.910156,-0.363281 -0.179688,0 -0.363281,0.179687 -0.542969,0.363281 -0.183594,0.179688 -0.363281,0.363281 -0.546875,0.726562 0,0.542969 -0.179687,1.085938 -0.179687,1.632813 v 4.175781 z m 8.714844,0 V 19.066407 h 3.449218 c 0.726563,0 1.269532,0 1.632813,0.179687 0.363281,0.363281 0.726562,0.726563 0.910156,1.089844 0.363281,0.542969 0.542969,0.90625 0.542969,1.453125 0,0.542968 -0.179688,1.089844 -0.363282,1.453125 -0.363281,0.363281 -0.542968,0.726562 -1.089843,0.90625 0.546875,0.363281 1.089843,0.546875 1.273437,1.089843 0.363282,0.363282 0.542969,1.089844 0.542969,1.632813 0,0.726563 -0.179687,1.273437 -0.363281,1.816406 -0.363282,0.546875 -0.726563,0.910157 -1.089844,1.089844 -0.542969,0.363281 -1.089844,0.363281 -1.996094,0.363281 z m 1.269531,-6.355468 h 1.816406 c 0.546875,0 0.910156,-0.179688 1.269531,-0.179688 0.183594,-0.183594 0.546875,-0.363281 0.726563,-0.546875 0,-0.179687 0.183593,-0.542969 0.183593,-1.085937 0,-0.367188 0,-0.730469 -0.183593,-0.910157 -0.179688,-0.363281 -0.363281,-0.542969 -0.726563,-0.542969 -0.179687,-0.183593 -0.722656,-0.183593 -1.269531,-0.183593 h -1.816406 z m 0,5.085937 h 2.179687 c 0.546875,0 0.90625,0 1.089844,-0.183594 0.363281,-0.179687 0.726562,-0.363281 0.90625,-0.542969 0.183594,-0.363281 0.183594,-0.726562 0.183594,-1.273437 0,-0.363281 0,-0.722656 -0.183594,-1.089844 -0.179688,-0.179687 -0.542969,-0.363281 -0.726562,-0.542969 -0.363282,-0.179687 -0.722657,-0.179687 -1.453126,-0.179687 h -1.996093 z m 7.808593,-8.351563 V 19.066407 H 87.875 v 1.453124 z m 0,9.621094 V 22.152344 H 87.875 v 7.988281 z m 3.628907,0 V 19.066407 h 1.089841 v 11.074218 z m 7.808591,0 v -0.90625 c -0.17968,0.363282 -0.36328,0.542969 -0.72656,0.90625 -0.36328,0.179688 -0.72656,0.179688 -1.08984,0.179688 -0.72657,0 -1.44922,-0.363282 -1.9961,-1.085938 -0.54687,-0.726562 -0.90625,-1.816406 -0.90625,-3.085937 0,-0.910157 0.17969,-1.636719 0.54297,-2.363281 0.17969,-0.542969 0.54297,-1.089844 0.91016,-1.453126 0.35937,-0.359374 0.90625,-0.359374 1.44922,-0.359374 0.36328,0 0.72656,0 1.08984,0.179687 0.18359,0.179687 0.54688,0.542969 0.72656,0.90625 v -3.992187 h 1.08985 v 11.074218 z m -3.44922,-3.992187 c 0,1.085937 0.1836,1.8125 0.54297,2.359375 0.36328,0.542968 0.72657,0.726562 1.27344,0.726562 0.36328,0 0.90625,-0.183594 1.26953,-0.726562 0.36328,-0.546875 0.36328,-1.273438 0.36328,-2.179688 0,-1.089844 0,-1.996094 -0.36328,-2.542968 -0.36328,-0.542969 -0.90625,-0.726563 -1.45312,-0.726563 -0.36328,0 -0.90625,0.183594 -1.08985,0.726563 -0.35937,0.546874 -0.54297,1.273437 -0.54297,2.363281 z m 11.437496,3.992187 v -1.089844 c -0.36328,0.363282 -0.54296,0.726563 -0.90625,0.90625 -0.36328,0.363282 -0.72656,0.363282 -1.27343,0.363282 -0.54297,0 -0.90625,-0.179688 -1.26953,-0.363282 -0.36329,-0.359374 -0.72657,-0.722656 -0.72657,-1.085937 -0.17968,-0.363281 -0.17968,-1.089844 -0.17968,-1.816406 v -4.902344 h 1.08593 v 4.355469 c 0,0.910156 0,1.453125 0.1836,1.816406 0,0.183594 0.17968,0.363281 0.36328,0.546875 0.17969,0.179687 0.54297,0.363281 0.72656,0.363281 0.54297,0 1.08984,-0.363281 1.45313,-0.726562 0.17968,-0.363282 0.36328,-1.089844 0.36328,-2 v -4.355469 h 1.08593 v 7.988281 z m 3.44922,0 V 22.152344 H 110.75 v 1.089844 c 0.18359,-0.363281 0.54687,-0.726563 0.90625,-1.089844 0.36328,-0.179687 0.72656,-0.179687 1.09375,-0.179687 0.35937,0 0.72265,0 1.08593,0.179687 0.1836,0.179687 0.54688,0.363281 0.72657,0.542969 0.17968,0.183594 0.36328,0.546875 0.36328,0.910156 0.18359,0.363281 0.18359,0.90625 0.18359,1.632812 v 4.902344 h -1.08984 v -4.902344 c 0,-0.542968 -0.1836,-1.089843 -0.1836,-1.269531 -0.17968,-0.363281 -0.36328,-0.546875 -0.54296,-0.726562 -0.1836,0 -0.36329,-0.183594 -0.72657,-0.183594 -0.54687,0 -0.91015,0.183594 -1.26953,0.546875 -0.36328,0.542969 -0.54687,1.089844 -0.54687,2.175781 v 4.359375 z m 7.625,0.726563 1.08985,0.179687 c 0.18359,0.363282 0.18359,0.726563 0.54687,0.910156 0.17969,0.179688 0.54297,0.363282 1.08984,0.363282 0.36329,0 0.72266,-0.183594 1.08594,-0.363282 0.36328,-0.183593 0.54688,-0.546874 0.54688,-1.089843 0.17968,-0.183594 0.17968,-0.910157 0.17968,-1.816407 -0.17968,0.363282 -0.54296,0.726563 -0.90625,0.90625 -0.18359,0.183594 -0.54296,0.183594 -0.90625,0.183594 -0.91015,0 -1.45312,-0.363281 -1.99999,-0.90625 -0.54297,-0.910156 -0.90625,-1.816406 -0.90625,-3.085937 0,-0.910157 0.17968,-1.636719 0.36328,-2.363281 0.36328,-0.726563 0.72656,-1.089844 1.08984,-1.453126 0.36328,-0.359374 0.90625,-0.359374 1.45312,-0.359374 0.36329,0 0.72266,0 1.08594,0.179687 0.36328,0.179687 0.54688,0.542969 0.72656,0.90625 v -0.90625 h 1.08985 v 6.898437 c 0,1.269532 0,2.179688 -0.36328,2.722657 -0.17969,0.546875 -0.36328,0.910156 -0.90625,1.273437 -0.54688,0.179688 -1.08985,0.363282 -1.63282,0.363282 -0.91015,0 -1.63671,-0.183594 -1.99999,-0.726563 -0.54297,-0.363281 -0.72657,-1.089844 -0.72657,-1.816406 z m 0.91016,-4.902344 c 0,1.089844 0.17969,1.816406 0.54297,2.359375 0.36328,0.546875 0.91015,0.726562 1.27343,0.726562 0.54297,0 1.08594,-0.179687 1.26954,-0.726562 0.36328,-0.542969 0.54296,-1.269531 0.54296,-2.359375 0,-0.90625 -0.17968,-1.632813 -0.54296,-2.179687 -0.36329,-0.542969 -0.72657,-0.726563 -1.26954,-0.726563 -0.54687,0 -0.91015,0.183594 -1.27343,0.726563 -0.36328,0.546874 -0.54297,1.273437 -0.54297,2.179687 z M 61.183594,47.749999 v -1.08594 c -0.179688,0.36329 -0.542969,0.72657 -0.90625,1.08594 -0.363281,0.1836 -0.726562,0.1836 -1.089844,0.1836 -0.542968,0 -1.089844,0 -1.453125,-0.36329 -0.363281,-0.17968 -0.542969,-0.54296 -0.726562,-1.08984 -0.179688,-0.363281 -0.179688,-0.90625 -0.179688,-1.632812 v -5.085938 h 1.089844 v 4.539062 c 0,0.726563 0,1.273438 0.179687,1.636719 0,0.179688 0.183594,0.542969 0.363282,0.726559 0.363281,0 0.546875,0.17969 0.910156,0.17969 0.542969,0 0.90625,-0.17969 1.269531,-0.726561 0.363281,-0.363281 0.363281,-1.089844 0.363281,-1.996094 v -4.359375 h 1.269532 v 7.98828 z m 3.453125,0 v -7.98828 h 1.085937 v 1.089844 c 0.183594,-0.363282 0.546876,-0.726563 0.910157,-0.90625 0.363281,-0.183594 0.726562,-0.363282 1.269531,-0.363282 0.363281,0 0.546875,0 0.910156,0.179688 0.359375,0.183594 0.542969,0.363281 0.722656,0.546875 0.183594,0.179687 0.363282,0.542969 0.363282,0.90625 0.183594,0.363281 0.183594,0.90625 0.183594,1.636719 v 4.898436 h -1.089844 v -4.898436 c 0,-0.546875 0,-0.910156 -0.179688,-1.273438 0,-0.179687 -0.183594,-0.363281 -0.546875,-0.542968 -0.179687,-0.183594 -0.363281,-0.363282 -0.726562,-0.363282 -0.542969,0 -0.90625,0.363282 -1.269531,0.726563 -0.363282,0.363281 -0.363282,1.085937 -0.363282,1.996093 v 4.355468 z m 12.164063,0 v -0.90625 c -0.183594,0.36328 -0.363282,0.72656 -0.726563,0.90625 -0.363281,0.1836 -0.726563,0.1836 -1.089844,0.1836 -0.726562,0 -1.453125,-0.36329 -2,-1.08985 -0.542969,-0.726561 -0.90625,-1.632811 -0.90625,-3.085936 0,-0.90625 0.183594,-1.636719 0.546875,-2.359375 0.179688,-0.546875 0.542969,-1.089844 0.90625,-1.453125 0.363282,-0.183594 0.90625,-0.363282 1.453125,-0.363282 0.363281,0 0.726563,0 1.089844,0.363282 0.179687,0.179687 0.542969,0.363281 0.726563,0.726562 v -3.996094 h 1.085937 v 11.074218 z m -3.453126,-3.992186 c 0,1.089844 0.183594,1.816406 0.546876,2.359375 0.363281,0.546871 0.726562,0.726561 1.269531,0.726561 0.363281,0 0.910156,-0.17969 1.273437,-0.726561 0.363282,-0.363281 0.363282,-1.089844 0.363282,-2.179688 0,-1.085937 0,-1.996093 -0.363282,-2.539062 -0.363281,-0.363281 -0.910156,-0.726563 -1.453125,-0.726563 -0.363281,0 -0.910156,0.363282 -1.089843,0.726563 -0.363282,0.542969 -0.546876,1.269531 -0.546876,2.359375 z m 10.894532,3.992186 V 36.675781 h 6.171875 v 1.273438 h -4.898438 v 3.449219 h 4.175781 v 1.453125 h -4.175781 v 4.898436 z m 7.808596,-3.992186 c 0,-1.453125 0.36328,-2.359375 0.90625,-3.085938 0.54687,-0.726562 1.26953,-1.089844 2.17969,-1.089844 0.90625,0 1.63281,0.363282 2.35937,1.089844 0.54688,0.726563 0.90625,1.632813 0.90625,3.085938 0,1.453125 -0.35937,2.542966 -0.90625,3.269536 -0.72656,0.72265 -1.45312,0.90625 -2.35937,0.90625 -0.72657,0 -1.63282,-0.1836 -2.17969,-0.90625 -0.54297,-0.72657 -0.90625,-1.816411 -0.90625,-3.269536 z m 1.26953,0 c 0,1.089844 0.18359,1.816406 0.54297,2.359375 0.36328,0.546871 0.72656,0.726561 1.45312,0.726561 0.36328,0 0.91016,-0.17969 1.27344,-0.726561 0.36328,-0.542969 0.54297,-1.269531 0.54297,-2.359375 0,-1.089844 -0.17969,-1.816406 -0.54297,-2.359375 -0.36328,-0.363281 -0.91016,-0.726563 -1.45312,-0.726563 -0.54688,0 -0.91016,0.363282 -1.27344,0.726563 -0.35938,0.542969 -0.54297,1.269531 -0.54297,2.359375 z m 7.082026,3.992186 v -7.98828 h 0.90625 v 1.273438 c 0.36328,-0.546876 0.54688,-1.089844 0.72656,-1.273438 0.36328,-0.179688 0.54688,-0.179688 0.72657,-0.179688 0.36328,0 0.90625,0.179688 1.26953,0.363282 l -0.36328,1.269531 c -0.36329,-0.179687 -0.54297,-0.179687 -0.90625,-0.179687 -0.17969,0 -0.36329,0 -0.72657,0.179687 -0.17968,0.183594 -0.17968,0.363281 -0.36328,0.726563 -0.17969,0.542968 -0.17969,1.089843 -0.17969,1.632812 v 4.17578 z m 4.53906,-2.359374 1.08985,-0.179687 c 0,0.542969 0.17968,0.90625 0.54297,1.269531 0.36328,0.18359 0.72656,0.36328 1.27343,0.36328 0.36328,0 0.72266,0 1.08594,-0.36328 0.18359,-0.17969 0.36328,-0.542969 0.36328,-0.90625 0,-0.363281 -0.17969,-0.546875 -0.36328,-0.726562 -0.17969,-0.183594 -0.54297,-0.183594 -1.08594,-0.363282 -0.91015,-0.363281 -1.45312,-0.546875 -1.8164,-0.726562 -0.1836,-0.183594 -0.54688,-0.546875 -0.72657,-0.726563 0,-0.363281 -0.18359,-0.726562 -0.18359,-1.089843 0,-0.726563 0.18359,-1.269532 0.72656,-1.816407 0.36328,-0.363281 1.08985,-0.542969 1.81641,-0.542969 0.54687,0 0.90625,0 1.26953,0.179688 0.36328,0.183594 0.72656,0.546875 0.91016,0.726562 0.17968,0.363282 0.36328,0.726563 0.36328,1.273438 l -1.08985,0.179688 c -0.18359,-0.726563 -0.54687,-1.269532 -1.45312,-1.269532 -0.54688,0 -0.90625,0.179688 -1.08984,0.363282 -0.17969,0.179687 -0.36329,0.363281 -0.36329,0.726562 0,0.359375 0.1836,0.542969 0.36329,0.722656 0.18359,0 0.54296,0.183594 1.27343,0.367188 0.90625,0.359375 1.44922,0.542968 1.8125,0.722656 0.1836,0.183594 0.36328,0.546875 0.54688,0.726562 0.17969,0.363282 0.17969,0.726563 0.17969,1.089844 0,0.910154 -0.17969,1.453124 -0.72657,2.000004 -0.36328,0.35937 -1.08984,0.72265 -1.99609,0.72265 -1.63281,0 -2.54297,-0.90625 -2.72266,-2.722654 z m 11.98047,-0.542968 1.08985,0.179687 c -0.17969,0.910156 -0.54297,1.636715 -1.08985,2.179685 -0.36328,0.54297 -1.08594,0.72657 -1.8125,0.72657 -0.72656,0 -1.45312,-0.1836 -2.17969,-0.90625 -0.54687,-0.72657 -0.72656,-1.816411 -0.72656,-3.269536 0,-1.453125 0.17969,-2.359375 0.90625,-3.085938 0.54688,-0.726562 1.27344,-1.089844 2.17969,-1.089844 0.54687,0 1.26953,0.179688 1.63281,0.542969 0.54688,0.546875 0.72656,1.089844 0.91016,1.996094 l -1.08985,0.183594 c -0.18359,-0.542969 -0.36328,-0.90625 -0.54687,-1.269531 -0.17969,-0.183594 -0.54297,-0.363282 -0.90625,-0.363282 -0.54688,0 -1.08984,0.179688 -1.45313,0.726563 -0.36328,0.542969 -0.54296,1.269531 -0.54296,2.359375 0,1.089844 0.17968,1.816406 0.54296,2.359375 0.36329,0.546871 0.72657,0.726561 1.27344,0.726561 0.54297,0 0.90625,-0.17969 1.08594,-0.36328 0.36328,-0.363281 0.54687,-0.90625 0.72656,-1.632812 z m 2.72656,2.902342 V 36.675781 h 1.08594 v 3.996094 c 0.36328,-0.363281 0.54688,-0.726562 0.91016,-0.910156 0.36328,-0.179688 0.72656,-0.179688 1.08984,-0.179688 0.72656,0 1.26953,0.179688 1.63281,0.726563 0.54297,0.363281 0.72657,1.269531 0.72657,2.359375 v 5.08203 h -1.08985 v -5.08203 c 0,-0.726562 -0.18359,-1.089844 -0.54297,-1.453125 -0.18359,-0.363281 -0.54687,-0.542969 -0.91015,-0.542969 -0.54297,0 -0.90625,0.363282 -1.26953,0.726563 -0.36329,0.363281 -0.54688,1.085937 -0.54688,1.996093 v 4.355468 z m 12.16407,0 v -1.08594 c -0.1836,0.36329 -0.54688,0.72657 -0.91016,1.08594 -0.36328,0.1836 -0.72656,0.1836 -1.08984,0.1836 -0.54297,0 -1.08594,0 -1.44922,-0.36329 -0.36328,-0.17968 -0.54688,-0.54296 -0.72657,-1.08984 -0.18359,-0.363281 -0.18359,-0.90625 -0.18359,-1.632812 v -5.085938 h 1.08984 v 4.539062 c 0,0.726563 0,1.273438 0.1836,1.636719 0,0.179688 0.17969,0.542969 0.36328,0.726559 0.35937,0 0.54297,0.17969 0.90625,0.17969 0.54297,0 0.90625,-0.17969 1.26953,-0.726561 0.36328,-0.363281 0.36328,-1.089844 0.36328,-1.996094 v -4.359375 h 1.26953 v 7.98828 z m 3.44921,0 v -7.98828 h 1.08985 v 1.089844 c 0.17969,-0.363282 0.54297,-0.726563 0.90625,-0.90625 0.36328,-0.183594 0.72656,-0.363282 1.26953,-0.363282 0.36328,0 0.54687,0 0.91016,0.179688 0.36328,0.183594 0.54296,0.363281 0.72656,0.546875 0.17969,0.179687 0.36328,0.542969 0.36328,0.90625 0.17969,0.363281 0.17969,0.90625 0.17969,1.636719 v 4.898436 h -1.08985 v -4.898436 c 0,-0.546875 0,-0.910156 -0.17968,-1.273438 0,-0.179687 -0.1836,-0.363281 -0.54688,-0.542968 -0.17969,-0.183594 -0.36328,-0.363282 -0.72266,-0.363282 -0.54687,0 -0.91015,0.363282 -1.27343,0.726563 -0.36328,0.363281 -0.36328,1.085937 -0.36328,1.996093 v 4.355468 z m 7.80469,0.72656 1.08985,0.1836 c 0,0.54297 0.18359,0.72656 0.36328,1.08984 0.17968,0.17969 0.54687,0.17969 1.08984,0.17969 0.54297,0 0.90625,0 1.08984,-0.36328 0.36329,-0.17969 0.54297,-0.54297 0.72657,-0.90625 0,-0.36328 0,-0.91016 0,-1.81641 -0.1836,0.36328 -0.54688,0.54688 -0.72657,0.72656 -0.36328,0.17969 -0.72656,0.17969 -1.08984,0.17969 -0.72656,0 -1.45312,-0.17969 -1.99609,-0.90625 -0.54688,-0.726561 -0.90625,-1.816405 -0.90625,-3.085936 0,-0.90625 0.17968,-1.636719 0.35937,-2.359375 0.36328,-0.546875 0.72656,-1.089844 1.08985,-1.453125 0.54296,-0.183594 0.91015,-0.363282 1.45312,-0.363282 0.36328,0 0.72656,0 1.08984,0.363282 0.36329,0.179687 0.54297,0.363281 0.90625,0.726562 v -0.910156 h 0.91016 v 6.90234 c 0,1.26954 0,2.17579 -0.18359,2.72266 -0.17969,0.54297 -0.54297,0.90625 -1.08985,1.26953 -0.36328,0.36328 -0.90625,0.54688 -1.63281,0.54688 -0.91016,0 -1.45312,-0.36328 -1.99609,-0.72657 -0.36328,-0.54687 -0.72657,-1.08984 -0.54688,-2 z m 0.91016,-4.90234 c 0,1.089844 0.17969,2 0.54297,2.363281 0.36328,0.542969 0.72656,0.726559 1.27343,0.726559 0.35938,0 0.90625,-0.18359 1.26954,-0.726559 0.36328,-0.363281 0.54296,-1.273437 0.54296,-2.179687 0,-1.089844 -0.17968,-1.816406 -0.54296,-2.359375 -0.36329,-0.363281 -0.91016,-0.726563 -1.45313,-0.726563 -0.36328,0 -0.72656,0.363282 -1.08984,0.726563 -0.36328,0.542969 -0.54297,1.269531 -0.54297,2.175781"
     id="path12" />
</svg>
